<svg width="1065" height="182" viewBox="0 0 1065 182" xmlns="http://www.w3.org/2000/svg"><path d="M1042.6 180.393c-4.553-7.635-9.643-15.837-15.267-24.611a1298.596 1298.596 0 0 0-17.477-26.518 714.643 714.643 0 0 0-18.382-25.916c-6.228-8.368-12.155-15.902-17.779-22.6v99.645h-24.913V41.17h20.692c5.357 5.626 11.117 12.29 17.278 19.99a984.38 984.38 0 0 1 18.583 24.008 875.329 875.329 0 0 1 18.08 25.01c5.826 8.372 11.016 16.173 15.57 23.404V41.17h25.112v139.223H1042.6zm-211.542 0V41.17h89.4v21.496H856.37V97.02h57.056v21.093H856.37v40.783h68.91v21.496zm-120.536-20.895c1.472.137 3.417.237 5.826.303 2.411.068 5.692.1 9.845.1 17.006 0 29.697-4.318 38.068-12.959 8.371-8.637 12.556-20.722 12.556-36.262 0-15.801-4.087-27.924-12.253-36.36-8.172-8.439-20.829-12.657-37.97-12.657-7.503 0-12.856.199-16.072.603v97.232zm92.813-48.818c0 12.054-1.875 22.537-5.624 31.442-3.75 8.907-9.074 16.341-15.97 22.3-6.899 5.959-15.2 10.379-24.913 13.259-9.71 2.878-20.458 4.319-32.243 4.319-5.625 0-11.987-.237-19.084-.703-7.102-.472-13.862-1.439-20.292-2.913V43.181c6.43-1.475 13.258-2.412 20.493-2.813 7.231-.403 13.66-.604 19.286-.604 11.652 0 22.298 1.376 31.941 4.12 9.643 2.746 17.913 7.03 24.812 12.855 6.896 5.828 12.22 13.194 15.97 22.099 3.75 8.91 5.624 19.523 5.624 31.842zm-206.52-49.017c-5.357 0-10.313.2-14.867.603v45h11.05c6.158 0 11.583-.332 16.272-1.005 4.687-.668 8.605-1.872 11.752-3.617 3.147-1.738 5.526-4.082 7.134-7.03 1.604-2.945 2.41-6.694 2.41-11.25 0-4.284-.806-7.902-2.41-10.847-1.608-2.947-3.918-5.29-6.932-7.034-3.013-1.738-6.599-2.978-10.747-3.716-4.155-.734-8.709-1.104-13.662-1.104m-1.81-21.899c20.09 0 35.458 3.686 46.108 11.048 10.648 7.37 15.97 18.62 15.97 33.753 0 18.883-9.308 31.676-27.924 38.371 2.542 3.082 5.425 6.831 8.64 11.251 3.212 4.42 6.494 9.21 9.842 14.363a315.704 315.704 0 0 1 9.644 15.872c3.08 5.423 5.825 10.747 8.236 15.97h-28.327a299.528 299.528 0 0 0-8.234-14.564 478.596 478.596 0 0 0-8.94-14.265 345.205 345.205 0 0 0-8.94-13.057c-2.949-4.084-5.696-7.736-8.238-10.948-1.878.133-3.485.2-4.823.2h-16.071v52.634h-25.314V43.182c6.161-1.339 12.723-2.245 19.69-2.715 6.962-.466 13.188-.703 18.681-.703M470.753 68.09c-3.084 7.102-6.6 15.74-10.548 25.917-3.951 10.18-8.071 21.23-12.354 33.147h45.804c-4.289-11.917-8.439-23.033-12.455-33.348-4.019-10.312-7.504-18.884-10.447-25.715zm41.083 112.303a576.292 576.292 0 0 0-5.843-16.274 463.387 463.387 0 0 1-5.839-16.473h-58.805a800.32 800.32 0 0 1-5.741 16.575 2412.855 2412.855 0 0 0-5.738 16.172h-26.325c5.218-14.867 10.172-28.595 14.856-41.184a1655.946 1655.946 0 0 1 13.747-35.761 1150.563 1150.563 0 0 1 13.349-32.141 1037.399 1037.399 0 0 1 13.651-30.137h24.164c4.687 9.915 9.24 19.959 13.659 30.137 4.42 10.18 8.872 20.89 13.36 32.14a2078.854 2078.854 0 0 1 13.867 35.762c4.752 12.589 9.741 26.317 14.965 41.184h-27.327zm-261.3-84.559h-17.102c1.486 28.383 15.971 53.32 37.612 68.977H251.23v17.104h68.285v-17.104c-37-2.39-66.589-31.977-68.978-68.977" fill="#fff"/><path d="M338.076 128.727h24.142l6.707-6.707v46.402a90.964 90.964 0 0 0 17.07-9.614v-53.859l18.779-18.78V62.03l-66.698 66.698z" fill="#4caf50"/><path d="M334.971 181.663c19.505-2.13 37.164-10.382 51.024-22.796v-25.8c-12.54 18.007-32.835 30.21-56.05 31.761v16.835h5.026zM324.605 0c-30.56 0-57.6 15.039-74.141 38.115V21.999h-17.102V86.26h17.342c2.528-38.616 34.646-69.156 73.9-69.156 16.71 0 32.126 5.535 44.519 14.869V11.597C355.956 4.215 340.773 0 324.605 0" fill="#fff"/><path fill="#4caf50" d="M126.364 180.393V41.17h84.98v16.676h-65.495V99.23h58.26v16.272h-58.26v48.216h70.516v16.674zM38.57 56.84c-8.305 0-14.665.202-19.084.603v52.433h13.86c6.698 0 12.725-.332 18.082-1.002 5.355-.671 9.875-1.94 13.562-3.818 3.682-1.874 6.529-4.521 8.537-7.935 2.008-3.417 3.014-7.937 3.014-13.561 0-5.224-1.006-9.573-3.014-13.057-2.008-3.482-4.722-6.23-8.136-8.237-3.415-2.01-7.434-3.415-12.055-4.22-4.62-.803-9.542-1.206-14.766-1.206m29.532 65.293c2.142 2.68 4.853 6.196 8.136 10.548 3.28 4.35 6.663 9.175 10.147 14.463a424.64 424.64 0 0 1 10.347 16.575c3.414 5.758 6.327 11.319 8.738 16.674H84.175a309.352 309.352 0 0 0-8.741-15.47 338.465 338.465 0 0 0-9.542-14.967 305.03 305.03 0 0 0-9.542-13.36c-3.148-4.15-5.995-7.766-8.537-10.848a67.884 67.884 0 0 1-5.325.202H19.485v54.443H0V43.18c5.488-1.338 11.616-2.243 18.382-2.714 6.76-.466 12.957-.703 18.583-.703 19.55 0 34.453 3.686 44.698 11.049C91.909 58.18 97.03 69.165 97.03 83.762c0 9.239-2.444 17.144-7.332 23.706-4.891 6.563-12.087 11.449-21.597 14.665"/></svg>